<?xml version="1.0" encoding="UTF-8"?>
<!DOCTYPE svg PUBLIC "-//W3C//DTD SVG 1.1//EN" "http://www.w3.org/Graphics/SVG/1.1/DTD/svg11.dtd">
<!-- Creator: CorelDRAW 2019 (64-Bit) -->
<svg xmlns="http://www.w3.org/2000/svg" xml:space="preserve" width="8.5in" height="8.5in" version="1.1" style="shape-rendering:geometricPrecision; text-rendering:geometricPrecision; image-rendering:optimizeQuality; fill-rule:evenodd; clip-rule:evenodd"
viewBox="0 0 2664.79 2664.79"
 xmlns:xlink="http://www.w3.org/1999/xlink"
 xmlns:xodm="http://www.corel.com/coreldraw/odm/2003">
 <defs>
  <style type="text/css">
   <![CDATA[
    .fil0 {fill:black}
   ]]>
  </style>
 </defs>
 <g id="Layer_x0020_1">
  <metadata id="CorelCorpID_0Corel-Layer"/>
  <g id="_2070883773744">
   <g>
    <path class="fil0" d="M121.13 2543.66l0 -409.77 725.67 -829.35 597.03 716.46 488.5 -366.41 611.33 611.33 0 277.74 -2422.53 0zm2422.53 -2422.53l0 1973.52 -599.94 -599.94 -480.51 360.35 -614.23 -737.05 -727.85 842.92 0 -1839.79 2422.53 0zm0 -121.13l-2422.53 0c-66.86,0 -121.13,54.26 -121.13,121.13l0 2422.53c0,66.86 54.26,121.13 121.13,121.13l2422.53 0c66.86,0 121.13,-54.26 121.13,-121.13l0 -2422.53c0,-66.86 -54.26,-121.13 -121.13,-121.13l0 0z"/>
    <g>
     <path class="fil0" d="M1816.9 605.63c133.6,0 242.25,108.65 242.25,242.25 0,133.6 -108.65,242.25 -242.25,242.25 -133.6,0 -242.25,-108.65 -242.25,-242.25 0,-133.6 108.65,-242.25 242.25,-242.25l0 0zm0 605.63c200.71,0 363.38,-162.67 363.38,-363.38 0,-200.71 -162.67,-363.38 -363.38,-363.38 -200.71,0 -363.38,162.67 -363.38,363.38 0,200.71 162.67,363.38 363.38,363.38z"/>
    </g>
   </g>
  </g>
 </g>
</svg>
