<svg xmlns="http://www.w3.org/2000/svg" xmlns:xlink="http://www.w3.org/1999/xlink" viewBox="0 0 100 125" version="1.1" x="0px" y="0px"><title>Artboard</title><desc>Created with Sketch.</desc><g stroke="none" stroke-width="1" fill="none" fill-rule="evenodd"><path d="M49.6160143,7 C59.4960038,17.3922048 64.9575321,29.2148223 66.0005992,42.4678527 L79.2320286,72.2421572 L63.6003096,72.2437946 L62.8743102,72.2459352 C62.7612719,72.5292185 62.6454892,72.8071993 62.5269623,73.0796203 L62.3471137,73.4840495 L61.5477541,75.2426407 L59.9880954,75.2421986 C60.5117486,77.5824845 60.70881,81.0259832 60.6260809,85.6925881 L60.5071512,91.1784399 L56.1732135,88.801115 L55.0769329,88.1926714 C54.8991201,88.0927686 54.7237559,87.9936162 54.5508372,87.8952115 L53.6200143,87.3586407 L53.4082917,87.7299462 L53.1166424,88.2308103 L52.502833,89.2653675 L52.180652,89.7991218 L49.6160143,94.0249145 L47.0513766,89.7991218 C46.8334999,89.4401231 46.6223538,89.0883725 46.4179301,88.743842 L45.8248175,87.7318819 L45.6100143,87.3586407 L45.1933642,87.6017913 C44.8572586,87.7956523 44.5113414,87.9925118 44.1555906,88.1923918 L43.6145864,88.4944798 L43.0588151,88.801115 L38.7248774,91.1784399 L38.6167323,86.2364773 C38.5085432,81.2924997 38.7001394,77.6724955 39.2439332,75.2421986 L37.6842745,75.2426407 L36.8849149,73.4840495 C36.7025261,73.0827943 36.5262964,72.6695962 36.3562208,72.2452591 L20,72.2421572 L33.1811362,42.5818241 C34.2125568,29.4655452 39.6908495,17.6049372 49.6160143,7 Z M56.8920387,75.241552 L42.3399899,75.241552 C41.7818216,77.1293988 41.5345562,80.4282335 41.5977264,85.1396361 L41.6160143,86.1708439 L42.1553191,85.8733048 L43.1895216,85.2923195 C44.5289735,84.5302027 45.7104557,83.8182163 46.7335955,83.1564693 C47.4222773,84.4953215 48.2789395,86.0181844 49.3035821,87.7250582 L49.6160143,88.2426407 L49.9284459,87.7250581 C50.953083,86.0181834 51.8096846,84.4953096 52.4977001,83.1563387 C53.7774645,83.9837433 55.3038107,84.8894041 57.0767385,85.8733211 L57.6160143,86.1708439 L57.626349,85.6496693 C57.7147622,80.6639367 57.4699921,77.1945642 56.8920387,75.241552 Z M59.6160143,28.2426407 C56.282681,29.575974 52.9493476,30.2426407 49.6160143,30.2426407 C46.282681,30.2426407 42.9493476,29.575974 39.6160143,28.2426407 C34.6864368,39.0877111 34.492387,60.3509424 39.4024567,71.7597828 L39.6160143,72.2426407 L59.6160143,72.2426407 C64.6175228,61.2393219 64.6160143,39.2426407 59.6160143,28.2426407 Z M66.6562208,51.3325632 C66.5575866,57.5850134 65.6093575,63.7679814 63.811242,68.6824395 L63.5999954,69.2437947 L74.6160143,69.2426407 L66.6562208,51.3325632 Z M32.5758078,51.3325632 L24.6160143,69.2426407 L35.6320332,69.2437947 L35.4207866,68.6824395 C33.6918293,63.956999 32.7486399,58.0587498 32.5909591,52.0536232 L32.5758078,51.3325632 Z M49.6160143,39.2426407 C53.4820075,39.2426407 56.6160143,42.3766474 56.6160143,46.2426407 C56.6160143,50.1086339 53.4820075,53.2426407 49.6160143,53.2426407 C45.750021,53.2426407 42.6160143,50.1086339 42.6160143,46.2426407 C42.6160143,42.3766474 45.750021,39.2426407 49.6160143,39.2426407 Z M49.6160143,42.2426407 C47.4068753,42.2426407 45.6160143,44.0335017 45.6160143,46.2426407 C45.6160143,48.4517797 47.4068753,50.2426407 49.6160143,50.2426407 C51.8251533,50.2426407 53.6160143,48.4517797 53.6160143,46.2426407 C53.6160143,44.0335017 51.8251533,42.2426407 49.6160143,42.2426407 Z M49.6160143,11.2426407 C45.6160143,15.2426407 42.6160143,19.9093074 40.6160143,25.2426407 C43.4395437,26.4975426 46.2630731,27.1619025 49.0866025,27.2357203 L49.6160143,27.2426407 L50.1454261,27.2357203 C52.9689555,27.1619025 55.7924849,26.4975426 58.6160143,25.2426407 C56.6160143,19.9093074 53.6160143,15.2426407 49.6160143,11.2426407 Z" fill="#000000" fill-rule="nonzero"/></g><text x="0" y="115" fill="#000000" font-size="5px" font-weight="bold" font-family="'Helvetica Neue', Helvetica, Arial-Unicode, Arial, Sans-serif">Created by franc11s</text><text x="0" y="120" fill="#000000" font-size="5px" font-weight="bold" font-family="'Helvetica Neue', Helvetica, Arial-Unicode, Arial, Sans-serif">from the Noun Project</text></svg>