<?xml version="1.0" encoding="UTF-8"?>
<!DOCTYPE svg PUBLIC "-//W3C//DTD SVG 1.1//EN" "http://www.w3.org/Graphics/SVG/1.1/DTD/svg11.dtd">
<!-- Creator: CorelDRAW 2019 (64-Bit) -->
<svg xmlns="http://www.w3.org/2000/svg" xml:space="preserve" width="5.0454in" height="7.40887in" version="1.1" style="shape-rendering:geometricPrecision; text-rendering:geometricPrecision; image-rendering:optimizeQuality; fill-rule:evenodd; clip-rule:evenodd"
viewBox="0 0 5032.16 7389.43"
 xmlns:xlink="http://www.w3.org/1999/xlink"
 xmlns:xodm="http://www.corel.com/coreldraw/odm/2003">
 <defs>
  <style type="text/css">
   <![CDATA[
    .str0 {stroke:#FEFEFE;stroke-width:6.93;stroke-miterlimit:2.61313}
    .fil0 {fill:#FEFEFE;fill-rule:nonzero}
   ]]>
  </style>
 </defs>
 <g id="Layer_x0020_1">
  <metadata id="CorelCorpID_0Corel-Layer"/>
  <g id="_2345765763472">
   <path class="fil0 str0" d="M2516.08 5.05c837.6,881.02 1300.61,1883.3 1389.03,3006.86l1121.72 2524.17 -1325.21 0.14 -61.55 0.18c-9.58,24.02 -19.4,47.58 -29.45,70.68l-15.25 34.29 -67.77 149.09 -132.22 -0.04c44.39,198.4 61.1,490.33 54.09,885.95l-10.08 465.08 -367.42 -201.54 -92.94 -51.58c-15.07,-8.47 -29.94,-16.88 -44.6,-25.22l-78.91 -45.49 -17.95 31.48 -24.73 42.46 -52.04 87.71 -27.31 45.25 -217.42 358.25 -217.42 -358.25c-18.47,-30.44 -36.37,-60.25 -53.7,-89.46l-50.28 -85.79 -18.21 -31.64 -35.32 20.62c-28.5,16.43 -57.82,33.12 -87.98,50.07l-45.86 25.61 -47.12 25.99 -367.42 201.54 -9.17 -418.96c-9.17,-419.14 7.07,-726.03 53.17,-932.06l-132.22 0.04 -67.77 -149.09c-15.46,-34.02 -30.4,-69.05 -44.82,-105.02l-1386.63 -0.26 1117.46 -2514.51c87.44,-1111.96 551.87,-2117.46 1393.29,-3016.52zm616.84 5785.31l-1233.68 0c-47.32,160.05 -68.28,439.71 -62.92,839.13l1.55 87.42 45.72 -25.22 87.68 -49.26c113.56,-64.61 213.72,-124.97 300.45,-181.07 58.39,113.5 131.01,242.61 217.88,387.31l26.49 43.88 26.49 -43.88c86.87,-144.7 159.49,-273.81 217.81,-387.32 108.49,70.15 237.89,146.92 388.2,230.34l45.72 25.22 0.88 -44.19c7.5,-422.68 -13.26,-716.8 -62.25,-882.37zm230.93 -3984.42c-282.59,113.03 -565.18,169.55 -847.77,169.55 -282.59,0 -565.18,-56.52 -847.77,-169.55 -417.91,919.41 -434.36,2722.04 -18.11,3689.25l18.11 40.94 1695.54 0c424.01,-932.83 423.88,-2797.63 0,-3730.18zm596.85 1957.49c-8.36,530.06 -88.75,1054.24 -241.19,1470.87l-17.91 47.59 933.9 -0.1 -674.81 -1518.36zm-2889.23 0l-674.81 1518.36 933.9 0.1 -17.91 -47.59c-146.57,-400.61 -226.54,-900.65 -239.9,-1409.74l-1.28 -61.13zm1444.61 -1024.94c327.75,0 593.44,265.69 593.44,593.43 0,327.74 -265.69,593.44 -593.44,593.44 -327.75,0 -593.44,-265.69 -593.44,-593.44 0,-327.74 265.69,-593.43 593.44,-593.43zm0 254.33c-187.29,0 -339.11,151.82 -339.11,339.1 0,187.28 151.82,339.11 339.11,339.11 187.28,0 339.11,-151.82 339.11,-339.11 0,-187.28 -151.82,-339.1 -339.11,-339.1zm0 -2628.08c-339.11,339.11 -593.44,734.73 -762.99,1186.88 239.37,106.39 478.74,162.71 718.11,168.96l44.88 0.59 44.88 -0.59c239.37,-6.26 478.74,-62.58 718.11,-168.96 -169.55,-452.14 -423.88,-847.77 -762.99,-1186.88z"/>
  </g>
 </g>
</svg>
